{
  "accessors": [
    {
      "bufferView": 2,
      "componentType": 5126,
      "count": 2167,
      "max": [
        0.17781999707221985,
        0.13142499327659607,
        0.8396170139312744
      ],
      "min": [
        -0.18627600371837616,
        -0.11318500339984894,
        0.2711069881916046
      ],
      "type": "VEC3"
    },
    {
      "bufferView": 2,
      "byteOffset": 26004,
      "componentType": 5126,
      "count": 2167,
      "max": [
        0.9964123368263245,
        0.998370885848999,
        0.999852180480957
      ],
      "min": [
        -0.9998367428779602,
        -0.9997028708457947,
        -0.9998933672904968
      ],
      "type": "VEC3"
    },
    {
      "bufferView": 1,
      "componentType": 5126,
      "count": 2167,
      "max": [
        0.9970859885215759,
        0.9956820011138916
      ],
      "min": [
        0.0036320090293884277,
        0.004333972930908203
      ],
      "type": "VEC2"
    },
    {
      "bufferView": 1,
      "byteOffset": 17336,
      "componentType": 5126,
      "count": 2167,
      "max": [
        0.9970859885215759,
        0.9956820011138916
      ],
      "min": [
        0.0036320090293884277,
        0.004333972930908203
      ],
      "type": "VEC2"
    },
    {
      "bufferView": 0,
      "componentType": 5125,
      "count": 9903,
      "type": "SCALAR"
    },
    {
      "bufferView": 2,
      "byteOffset": 52008,
      "componentType": 5126,
      "count": 826,
      "max": [
        0.12055300176143646,
        0.09992499649524689,
        0.5606880187988281
      ],
      "min": [
        -0.14853699505329132,
        -0.07516399770975113,
        0.07153800129890442
      ],
      "type": "VEC3"
    },
    {
      "bufferView": 2,
      "byteOffset": 61920,
      "componentType": 5126,
      "count": 826,
      "max": [
        0.9996233582496643,
        0.9994198083877563,
        0.9999356269836426
      ],
      "min": [
        -0.9988447427749634,
        -0.9997663497924805,
        -0.9948868751525879
      ],
      "type": "VEC3"
    },
    {
      "bufferView": 1,
      "byteOffset": 34672,
      "componentType": 5126,
      "count": 826,
      "max": [
        0.9903560280799866,
        0.986801028251648
      ],
      "min": [
        0.013779014348983765,
        0.007950007915496826
      ],
      "type": "VEC2"
    },
    {
      "bufferView": 1,
      "byteOffset": 41280,
      "componentType": 5126,
      "count": 826,
      "max": [
        0.9903560280799866,
        0.986801028251648
      ],
      "min": [
        0.013779014348983765,
        0.007950007915496826
      ],
      "type": "VEC2"
    },
    {
      "bufferView": 0,
      "byteOffset": 39612,
      "componentType": 5125,
      "count": 4011,
      "type": "SCALAR"
    },
    {
      "bufferView": 2,
      "byteOffset": 71832,
      "componentType": 5126,
      "count": 1668,
      "max": [
        0.1763249933719635,
        0.10944999754428864,
        0.9194250106811523
      ],
      "min": [
        -0.18018199503421783,
        -0.10699000209569931,
        0.005115999840199947
      ],
      "type": "VEC3"
    },
    {
      "bufferView": 2,
      "byteOffset": 91848,
      "componentType": 5126,
      "count": 1668,
      "max": [
        0.9996407628059387,
        0.9991334676742554,
        0.9934545755386353
      ],
      "min": [
        -0.9975362420082092,
        -0.9997496604919434,
        -0.9998697638511658
      ],
      "type": "VEC3"
    },
    {
      "bufferView": 1,
      "byteOffset": 47888,
      "componentType": 5126,
      "count": 1668,
      "max": [
        0.9935910105705261,
        0.9961469769477844
      ],
      "min": [
        0.008087009191513062,
        0.004646003246307373
      ],
      "type": "VEC2"
    },
    {
      "bufferView": 1,
      "byteOffset": 61232,
      "componentType": 5126,
      "count": 1668,
      "max": [
        0.9935910105705261,
        0.9961469769477844
      ],
      "min": [
        0.008087009191513062,
        0.004646003246307373
      ],
      "type": "VEC2"
    },
    {
      "bufferView": 0,
      "byteOffset": 55656,
      "componentType": 5125,
      "count": 8046,
      "type": "SCALAR"
    },
    {
      "bufferView": 2,
      "byteOffset": 111864,
      "componentType": 5126,
      "count": 2649,
      "max": [
        0.03954799845814705,
        0.053151000291109085,
        0.9365890026092529
      ],
      "min": [
        -0.047846999019384384,
        -0.06239299848675728,
        0.8348659873008728
      ],
      "type": "VEC3"
    },
    {
      "bufferView": 2,
      "byteOffset": 143652,
      "componentType": 5126,
      "count": 2649,
      "max": [
        0.9999166131019592,
        0.9998780488967896,
        0.9994482398033142
      ],
      "min": [
        -0.9993414282798767,
        -0.9990876317024231,
        -0.9758694171905518
      ],
      "type": "VEC3"
    },
    {
      "bufferView": 1,
      "byteOffset": 74576,
      "componentType": 5126,
      "count": 2649,
      "max": [
        0.9885860085487366,
        0.998291015625
      ],
      "min": [
        0.022689998149871826,
        0.0036929845809936523
      ],
      "type": "VEC2"
    },
    {
      "bufferView": 0,
      "byteOffset": 87840,
      "componentType": 5125,
      "count": 7434,
      "type": "SCALAR"
    },
    {
      "bufferView": 2,
      "byteOffset": 175440,
      "componentType": 5126,
      "count": 736,
      "max": [
        0.03487500175833702,
        0.030976999551057816,
        0.8725969791412354
      ],
      "min": [
        -0.04815300181508064,
        -0.06267800182104111,
        0.8385339975357056
      ],
      "type": "VEC3"
    },
    {
      "bufferView": 2,
      "byteOffset": 184272,
      "componentType": 5126,
      "count": 736,
      "max": [
        0.9989053606987,
        0.9970606565475464,
        0.9982009530067444
      ],
      "min": [
        -0.9988619685173035,
        -0.9962902069091797,
        -0.9999192357063293
      ],
      "type": "VEC3"
    },
    {
      "bufferView": 1,
      "byteOffset": 95768,
      "componentType": 5126,
      "count": 736,
      "max": [
        0.9933930039405823,
        0.36179786920547485
      ],
      "min": [
        0.004485994577407837,
        0.00847482681274414
      ],
      "type": "VEC2"
    },
    {
      "bufferView": 1,
      "byteOffset": 101656,
      "componentType": 5126,
      "count": 736,
      "max": [
        0.9933930039405823,
        0.36179786920547485
      ],
      "min": [
        0.004485994577407837,
        0.00847482681274414
      ],
      "type": "VEC2"
    },
    {
      "bufferView": 0,
      "byteOffset": 117576,
      "componentType": 5125,
      "count": 1788,
      "type": "SCALAR"
    },
    {
      "bufferView": 2,
      "byteOffset": 193104,
      "componentType": 5126,
      "count": 583,
      "max": [
        0.19327999651432037,
        0.11273899674415588,
        0.16498999297618866
      ],
      "min": [
        -0.17255599796772003,
        -0.12483999878168106,
        -0.001588999992236495
      ],
      "type": "VEC3"
    },
    {
      "bufferView": 2,
      "byteOffset": 200100,
      "componentType": 5126,
      "count": 583,
      "max": [
        0.9985187649726868,
        0.9997701048851013,
        0.9988324046134949
      ],
      "min": [
        -0.9995162487030029,
        -0.9986659288406372,
        -0.9991581439971924
      ],
      "type": "VEC3"
    },
    {
      "bufferView": 1,
      "byteOffset": 107544,
      "componentType": 5126,
      "count": 583,
      "max": [
        0.993071973323822,
        0.8518499732017517
      ],
      "min": [
        0.030106008052825928,
        0.009400010108947754
      ],
      "type": "VEC2"
    },
    {
      "bufferView": 1,
      "byteOffset": 112208,
      "componentType": 5126,
      "count": 583,
      "max": [
        0.993071973323822,
        0.8518499732017517
      ],
      "min": [
        0.030106008052825928,
        0.009400010108947754
      ],
      "type": "VEC2"
    },
    {
      "bufferView": 0,
      "byteOffset": 124728,
      "componentType": 5125,
      "count": 2670,
      "type": "SCALAR"
    },
    {
      "bufferView": 2,
      "byteOffset": 207096,
      "componentType": 5126,
      "count": 64,
      "max": [
        0.031991999596357346,
        -0.05044199898838997,
        0.8632940053939819
      ],
      "min": [
        -0.027132000774145126,
        -0.06144599989056587,
        0.8390610218048096
      ],
      "type": "VEC3"
    },
    {
      "bufferView": 2,
      "byteOffset": 207864,
      "componentType": 5126,
      "count": 64,
      "max": [
        0.12159822881221771,
        0.9661223888397217,
        0.22322459518909454
      ],
      "min": [
        -0.1296907216310501,
        -0.9655331969261169,
        -0.2301970273256302
      ],
      "type": "VEC3"
    },
    {
      "bufferView": 1,
      "byteOffset": 116872,
      "componentType": 5126,
      "count": 64,
      "max": [
        0.7212479710578918,
        0.9873238801956177
      ],
      "min": [
        0.02513200044631958,
        0.3278588354587555
      ],
      "type": "VEC2"
    },
    {
      "bufferView": 1,
      "byteOffset": 117384,
      "componentType": 5126,
      "count": 64,
      "max": [
        0.7212479710578918,
        0.9873238801956177
      ],
      "min": [
        0.02513200044631958,
        0.3278588354587555
      ],
      "type": "VEC2"
    },
    {
      "bufferView": 0,
      "byteOffset": 135408,
      "componentType": 5125,
      "count": 168,
      "type": "SCALAR"
    }
  ],
  "asset": {
    "extras": {
      "author": "MrSaif Technical (https://sketchfab.com/sullah8989)",
      "license": "CC-BY-4.0 (http://creativecommons.org/licenses/by/4.0/)",
      "source": "https://sketchfab.com/3d-models/dj-alok-0a6d4b6192b24ffe8134f1d9f595a571",
      "title": "DJ ALOK"
    },
    "generator": "Sketchfab-16.21.0",
    "version": "2.0"
  },
  "bufferViews": [
    {
      "buffer": 0,
      "byteLength": 136080,
      "name": "floatBufferViews",
      "target": 34963
    },
    {
      "buffer": 0,
      "byteLength": 117896,
      "byteOffset": 136080,
      "byteStride": 8,
      "name": "floatBufferViews",
      "target": 34962
    },
    {
      "buffer": 0,
      "byteLength": 208632,
      "byteOffset": 253976,
      "byteStride": 12,
      "name": "floatBufferViews",
      "target": 34962
    }
  ],
  "buffers": [
    {
      "byteLength": 462608,
      "uri": "scene.bin"
    }
  ],
  "images": [
    {
      "uri": "textures/Tex_0078_0.dds_baseColor.png"
    },
    {
      "uri": "textures/Tex_0084_0.dds_baseColor.png"
    },
    {
      "uri": "textures/Tex_0091_0.dds_baseColor.png"
    },
    {
      "uri": "textures/Tex_0087_0.dds_baseColor.png"
    },
    {
      "uri": "textures/Tex_0075_0.dds_baseColor.png"
    }
  ],
  "materials": [
    {
      "doubleSided": true,
      "name": "Tex_0081_0.dds",
      "pbrMetallicRoughness": {
        "baseColorFactor": [
          0.027606939338488443,
          0.009583147659508419,
          0.009583147659508419,
          1.0
        ],
        "metallicFactor": 0.0,
        "roughnessFactor": 0.6795719707192882
      }
    },
    {
      "doubleSided": true,
      "name": "Tex_0078_0.dds",
      "pbrMetallicRoughness": {
        "baseColorTexture": {
          "index": 0
        },
        "metallicFactor": 0.0,
        "roughnessFactor": 0.8561047094898604
      }
    },
    {
      "doubleSided": true,
      "name": "Tex_0084_0.dds",
      "pbrMetallicRoughness": {
        "baseColorTexture": {
          "index": 1
        },
        "metallicFactor": 0.0,
        "roughnessFactor": 0.8967204234452306
      }
    },
    {
      "doubleSided": true,
      "name": "Tex_0091_0.dds",
      "pbrMetallicRoughness": {
        "baseColorTexture": {
          "index": 2
        },
        "metallicFactor": 0.0
      }
    },
    {
      "doubleSided": true,
      "name": "Tex_0087_0.dds",
      "pbrMetallicRoughness": {
        "baseColorTexture": {
          "index": 3
        },
        "metallicFactor": 0.0,
        "roughnessFactor": 0.929150809732442
      }
    },
    {
      "doubleSided": true,
      "name": "Tex_0075_0.dds",
      "pbrMetallicRoughness": {
        "baseColorTexture": {
          "index": 4
        },
        "metallicFactor": 0.0,
        "roughnessFactor": 0.9029857472690679
      }
    },
    {
      "doubleSided": true,
      "name": "Tex_0087_0.dds.001",
      "pbrMetallicRoughness": {
        "baseColorTexture": {
          "index": 3
        },
        "metallicFactor": 0.0,
        "roughnessFactor": 0.8211145618000169
      }
    }
  ],
  "meshes": [
    {
      "name": "baju_Tex_0081_0.dds_0",
      "primitives": [
        {
          "attributes": {
            "NORMAL": 1,
            "POSITION": 0,
            "TEXCOORD_0": 2,
            "TEXCOORD_1": 3
          },
          "indices": 4,
          "material": 0,
          "mode": 4
        }
      ]
    },
    {
      "name": "celana_Tex_0078_0.dds_0",
      "primitives": [
        {
          "attributes": {
            "NORMAL": 6,
            "POSITION": 5,
            "TEXCOORD_0": 7,
            "TEXCOORD_1": 8
          },
          "indices": 9,
          "material": 1,
          "mode": 4
        }
      ]
    },
    {
      "name": "kulit_Tex_0084_0.dds_0",
      "primitives": [
        {
          "attributes": {
            "NORMAL": 11,
            "POSITION": 10,
            "TEXCOORD_0": 12,
            "TEXCOORD_1": 13
          },
          "indices": 14,
          "material": 2,
          "mode": 4
        }
      ]
    },
    {
      "name": "rambut_Tex_0091_0.dds_0",
      "primitives": [
        {
          "attributes": {
            "NORMAL": 16,
            "POSITION": 15,
            "TEXCOORD_0": 17
          },
          "indices": 18,
          "material": 3,
          "mode": 4
        }
      ]
    },
    {
      "name": "kacamata_Tex_0087_0.dds_0",
      "primitives": [
        {
          "attributes": {
            "NORMAL": 20,
            "POSITION": 19,
            "TEXCOORD_0": 21,
            "TEXCOORD_1": 22
          },
          "indices": 23,
          "material": 4,
          "mode": 4
        }
      ]
    },
    {
      "name": "seaptu_Tex_0075_0.dds_0",
      "primitives": [
        {
          "attributes": {
            "NORMAL": 25,
            "POSITION": 24,
            "TEXCOORD_0": 26,
            "TEXCOORD_1": 27
          },
          "indices": 28,
          "material": 5,
          "mode": 4
        }
      ]
    },
    {
      "name": "lensa kacamata_Tex_0087_0.dds.001_0",
      "primitives": [
        {
          "attributes": {
            "NORMAL": 30,
            "POSITION": 29,
            "TEXCOORD_0": 31,
            "TEXCOORD_1": 32
          },
          "indices": 33,
          "material": 6,
          "mode": 4
        }
      ]
    }
  ],
  "nodes": [
    {
      "children": [
        1
      ],
      "matrix": [
        1.0,
        0.0,
        0.0,
        0.0,
        0.0,
        2.220446049250313e-16,
        -1.0,
        0.0,
        0.0,
        1.0,
        2.220446049250313e-16,
        0.0,
        0.0,
        0.0,
        0.0,
        1.0
      ],
      "name": "Sketchfab_model"
    },
    {
      "children": [
        2
      ],
      "matrix": [
        0.009999999776482582,
        0.0,
        0.0,
        0.0,
        0.0,
        0.0,
        0.009999999776482582,
        0.0,
        0.0,
        -0.009999999776482582,
        0.0,
        0.0,
        0.0,
        0.0,
        0.0,
        1.0
      ],
      "name": "alok.fbx"
    },
    {
      "children": [
        3,
        5,
        7,
        9,
        11,
        13,
        15,
        17,
        20
      ],
      "name": "RootNode"
    },
    {
      "children": [
        4
      ],
      "matrix": [
        100.0,
        0.0,
        0.0,
        0.0,
        0.0,
        -1.629206793918314e-05,
        -99.99999999999868,
        0.0,
        0.0,
        99.99999999999868,
        -1.629206793918314e-05,
        0.0,
        0.0,
        0.0,
        0.0,
        1.0
      ],
      "name": "baju"
    },
    {
      "mesh": 0,
      "name": "baju_Tex_0081_0.dds_0"
    },
    {
      "children": [
        6
      ],
      "matrix": [
        100.0,
        0.0,
        0.0,
        0.0,
        0.0,
        -1.629206793918314e-05,
        -99.99999999999868,
        0.0,
        0.0,
        99.99999999999868,
        -1.629206793918314e-05,
        0.0,
        0.0,
        0.0,
        0.0,
        1.0
      ],
      "name": "celana"
    },
    {
      "mesh": 1,
      "name": "celana_Tex_0078_0.dds_0"
    },
    {
      "children": [
        8
      ],
      "matrix": [
        100.0,
        0.0,
        0.0,
        0.0,
        0.0,
        -1.629206793918314e-05,
        -99.99999999999868,
        0.0,
        0.0,
        99.99999999999868,
        -1.629206793918314e-05,
        0.0,
        0.0,
        0.0,
        0.0,
        1.0
      ],
      "name": "kulit"
    },
    {
      "mesh": 2,
      "name": "kulit_Tex_0084_0.dds_0"
    },
    {
      "children": [
        10
      ],
      "matrix": [
        100.0,
        0.0,
        0.0,
        0.0,
        0.0,
        -1.629206793918314e-05,
        -99.99999999999868,
        0.0,
        0.0,
        99.99999999999868,
        -1.629206793918314e-05,
        0.0,
        0.0,
        0.0,
        0.0,
        1.0
      ],
      "name": "rambut"
    },
    {
      "mesh": 3,
      "name": "rambut_Tex_0091_0.dds_0"
    },
    {
      "children": [
        12
      ],
      "matrix": [
        100.0,
        0.0,
        0.0,
        0.0,
        0.0,
        -1.629206793918314e-05,
        -99.99999999999868,
        0.0,
        0.0,
        99.99999999999868,
        -1.629206793918314e-05,
        0.0,
        0.0,
        0.0,
        0.0,
        1.0
      ],
      "name": "kacamata"
    },
    {
      "mesh": 4,
      "name": "kacamata_Tex_0087_0.dds_0"
    },
    {
      "children": [
        14
      ],
      "matrix": [
        100.0,
        0.0,
        0.0,
        0.0,
        0.0,
        -1.629206793918314e-05,
        -99.99999999999868,
        0.0,
        0.0,
        99.99999999999868,
        -1.629206793918314e-05,
        0.0,
        0.0,
        0.0,
        0.0,
        1.0
      ],
      "name": "seaptu"
    },
    {
      "mesh": 5,
      "name": "seaptu_Tex_0075_0.dds_0"
    },
    {
      "children": [
        16
      ],
      "matrix": [
        -8.481974069314989,
        -2.831385775577,
        -99.59941740850984,
        0.0,
        -0.240269161967334,
        99.95992350722824,
        -2.821172613813506,
        0.0,
        99.63933412400897,
        1.555597037475517e-05,
        -8.485373854168747,
        0.0,
        21.514020919799805,
        55.40309524536133,
        261.9796142578125,
        1.0
      ],
      "name": "Camera"
    },
    {
      "name": "Object_16"
    },
    {
      "children": [
        18
      ],
      "matrix": [
        51.846948293085575,
        -65.52302414148389,
        54.94204934226239,
        0.0,
        44.62278585821591,
        75.54207516345757,
        47.981281643254356,
        0.0,
        -72.94313983473847,
        -0.36015720486914926,
        68.40444896231219,
        0.0,
        0.0,
        210.83937072753906,
        0.0,
        1.0
      ],
      "name": "Sun"
    },
    {
      "children": [
        19
      ],
      "matrix": [
        1.0,
        0.0,
        0.0,
        0.0,
        0.0,
        2.220446049250313e-16,
        1.0,
        0.0,
        0.0,
        -1.0,
        2.220446049250313e-16,
        0.0,
        0.0,
        0.0,
        0.0,
        1.0
      ],
      "name": "Object_18"
    },
    {
      "name": "Object_19"
    },
    {
      "children": [
        21
      ],
      "matrix": [
        100.0,
        0.0,
        0.0,
        0.0,
        0.0,
        -1.629206793918314e-05,
        -99.99999999999868,
        0.0,
        0.0,
        99.99999999999868,
        -1.629206793918314e-05,
        0.0,
        0.0,
        0.0,
        0.0,
        1.0
      ],
      "name": "lensa kacamata"
    },
    {
      "mesh": 6,
      "name": "lensa kacamata_Tex_0087_0.dds.001_0"
    }
  ],
  "samplers": [
    {
      "magFilter": 9729,
      "minFilter": 9987,
      "wrapS": 10497,
      "wrapT": 10497
    }
  ],
  "scene": 0,
  "scenes": [
    {
      "name": "Sketchfab_Scene",
      "nodes": [
        0
      ]
    }
  ],
  "textures": [
    {
      "sampler": 0,
      "source": 0
    },
    {
      "sampler": 0,
      "source": 1
    },
    {
      "sampler": 0,
      "source": 2
    },
    {
      "sampler": 0,
      "source": 3
    },
    {
      "sampler": 0,
      "source": 4
    }
  ]
}
